<svg width="50" height="50" viewBox="0 0 50 50" fill="none" xmlns="http://www.w3.org/2000/svg">
<path d="M25 25C27.4864 25 29.871 24.0123 31.6291 22.2541C33.3873 20.496 34.375 18.1114 34.375 15.625C34.375 13.1386 33.3873 10.754 31.6291 8.99587C29.871 7.23772 27.4864 6.25 25 6.25C22.5136 6.25 20.129 7.23772 18.3709 8.99587C16.6127 10.754 15.625 13.1386 15.625 15.625C15.625 18.1114 16.6127 20.496 18.3709 22.2541C20.129 24.0123 22.5136 25 25 25ZM31.25 15.625C31.25 17.2826 30.5915 18.8723 29.4194 20.0444C28.2473 21.2165 26.6576 21.875 25 21.875C23.3424 21.875 21.7527 21.2165 20.5806 20.0444C19.4085 18.8723 18.75 17.2826 18.75 15.625C18.75 13.9674 19.4085 12.3777 20.5806 11.2056C21.7527 10.0335 23.3424 9.375 25 9.375C26.6576 9.375 28.2473 10.0335 29.4194 11.2056C30.5915 12.3777 31.25 13.9674 31.25 15.625ZM43.75 40.625C43.75 43.75 40.625 43.75 40.625 43.75H9.375C9.375 43.75 6.25 43.75 6.25 40.625C6.25 37.5 9.375 28.125 25 28.125C40.625 28.125 43.75 37.5 43.75 40.625ZM40.625 40.6125C40.6219 39.8438 40.1437 37.5312 38.025 35.4125C35.9875 33.375 32.1531 31.25 25 31.25C17.8438 31.25 14.0125 33.375 11.975 35.4125C9.85625 37.5312 9.38125 39.8438 9.375 40.6125H40.625Z" fill="white"/>
</svg>
