<svg width="50" height="50" viewBox="0 0 50 50" fill="none" xmlns="http://www.w3.org/2000/svg">
<path d="M18.5139 44.4444C20.2398 44.4444 21.6389 43.0453 21.6389 41.3194C21.6389 39.5936 20.2398 38.1944 18.5139 38.1944C16.788 38.1944 15.3889 39.5936 15.3889 41.3194C15.3889 43.0453 16.788 44.4444 18.5139 44.4444Z" fill="white"/>
<path d="M37.5 44.4444C39.2259 44.4444 40.625 43.0453 40.625 41.3194C40.625 39.5936 39.2259 38.1944 37.5 38.1944C35.7741 38.1944 34.375 39.5936 34.375 41.3194C34.375 43.0453 35.7741 44.4444 37.5 44.4444Z" fill="white"/>
<path d="M46.1935 8.88098C46.0642 8.72165 45.9013 8.59294 45.7164 8.50409C45.5315 8.41523 45.3292 8.36844 45.124 8.36709H16.2074L17.1101 11.1449H43.3046L39.5963 27.8115H18.7629L12.4157 7.71431C12.347 7.50106 12.2278 7.30758 12.0682 7.15038C11.9086 6.99318 11.7133 6.87692 11.499 6.81153L5.80459 5.06153C5.62949 5.00773 5.44552 4.98894 5.26316 5.00623C5.0808 5.02353 4.90363 5.07657 4.74178 5.16234C4.41489 5.33555 4.1702 5.63152 4.06153 5.98514C3.95287 6.33877 3.98913 6.72107 4.16234 7.04796C4.33555 7.37484 4.63152 7.61953 4.98515 7.7282L9.97126 9.25598L16.3463 29.3949L14.0685 31.256L13.8879 31.4365C13.3245 32.0858 13.0051 32.9113 12.9849 33.7707C12.9646 34.6301 13.2446 35.4697 13.7768 36.1449C14.1554 36.6052 14.6364 36.9706 15.1814 37.2118C15.7265 37.4529 16.3204 37.5632 16.9157 37.5338H40.0963C40.4646 37.5338 40.8179 37.3874 41.0783 37.127C41.3388 36.8665 41.4851 36.5132 41.4851 36.1449C41.4851 35.7765 41.3388 35.4232 41.0783 35.1628C40.8179 34.9023 40.4646 34.756 40.0963 34.756H16.6935C16.5335 34.7505 16.3777 34.7039 16.2411 34.6206C16.1044 34.5374 15.9915 34.4203 15.9133 34.2806C15.8351 34.141 15.7943 33.9836 15.7947 33.8235C15.7951 33.6635 15.8368 33.5063 15.9157 33.3671L19.2629 30.5893H40.7074C41.0284 30.5972 41.3423 30.4935 41.5955 30.296C41.8487 30.0985 42.0257 29.8193 42.0963 29.506L46.499 10.0615C46.5413 9.85447 46.5357 9.64051 46.4827 9.43593C46.4298 9.23135 46.3309 9.04154 46.1935 8.88098Z" fill="white"/>
</svg>
