<svg width="47" height="41" viewBox="0 0 47 41" fill="none" xmlns="http://www.w3.org/2000/svg">
<path d="M44.75 5.82336C42.8517 1.92753 37.3833 -1.25997 31.0225 0.595862C27.983 1.47383 25.3311 3.35664 23.5 5.9367C21.6689 3.35664 19.017 1.47383 15.9775 0.595862C9.60249 -1.23164 4.14833 1.92753 2.24999 5.82336C-0.413338 11.2775 0.691662 17.4117 5.53666 24.0559C9.33333 29.255 14.7592 34.525 22.6358 40.645C22.8848 40.8392 23.1914 40.9446 23.5071 40.9446C23.8228 40.9446 24.1294 40.8392 24.3783 40.645C32.2408 34.5392 37.6808 29.3117 41.4775 24.0559C46.3083 17.4117 47.4133 11.2775 44.75 5.82336Z" fill="#3A9EFD"/>
</svg>
