<svg width="44" height="40" viewBox="0 0 44 40" fill="none" xmlns="http://www.w3.org/2000/svg">
<path d="M22 40C21.6961 39.999 21.4012 39.8967 21.1611 39.709C13.5149 33.7221 8.24779 28.5668 4.56219 23.4808C-0.141062 16.9811 -1.21373 10.9804 1.37168 5.64495C3.21448 1.83388 8.50908 -1.28426 14.6976 0.531191C17.6482 1.39005 20.2225 3.2319 22 5.75582C23.7775 3.2319 26.3518 1.39005 29.3024 0.531191C35.4772 -1.25655 40.7855 1.83388 42.6283 5.64495C45.2137 10.9804 44.1411 16.9811 39.4378 23.4808C35.7522 28.5668 30.4851 33.7221 22.8389 39.709C22.5988 39.8967 22.3039 39.999 22 40ZM11.177 2.79011C9.70449 2.73236 8.24417 3.07982 6.9528 3.7952C5.66143 4.51057 4.58777 5.56684 3.84708 6.85064C1.71549 11.2576 2.67814 16.1635 6.79005 21.8316C11.1599 27.5116 16.2769 32.5655 22 36.8541C27.7222 32.5698 32.8391 27.5205 37.2099 21.8455C41.3356 16.1635 42.2845 11.2576 40.1529 6.86449C38.7777 4.09281 34.652 1.88932 30.0588 3.19201C28.586 3.63063 27.2206 4.37513 26.0506 5.37759C24.8805 6.38005 23.9317 7.61827 23.2652 9.01255C23.1616 9.26673 22.9853 9.48413 22.7588 9.63713C22.5323 9.79013 22.2658 9.87182 21.9931 9.87182C21.7204 9.87182 21.4539 9.79013 21.2274 9.63713C21.0009 9.48413 20.8247 9.26673 20.721 9.01255C20.0595 7.61478 19.1123 6.37367 17.9416 5.37058C16.7708 4.3675 15.4029 3.62508 13.9275 3.19201C13.0335 2.93036 12.1079 2.79511 11.177 2.79011Z" fill="#3A9EFD"/>
</svg>
