<svg width="40" height="50" viewBox="0 0 40 50" fill="none" xmlns="http://www.w3.org/2000/svg">
<path fill-rule="evenodd" clip-rule="evenodd" d="M8.33588 7.86062C9.86361 6.32142 11.6807 5.09956 13.6825 4.26537C15.6843 3.43118 17.8313 3.00114 20 3C24.3725 3 28.569 4.74625 31.6641 7.86062C34.7639 10.9835 36.5024 15.2058 36.5 19.6059C36.5 27.2041 32.287 34.0819 27.898 39.1597C26.0485 41.2893 24.0432 43.2784 21.8989 45.1107C21.1206 45.7762 20.4689 46.2974 20 46.659C19.5325 46.2974 18.8794 45.7762 18.1011 45.1107C15.9568 43.2784 13.9516 41.2893 12.102 39.1597C7.713 34.0819 3.5 27.2041 3.5 19.6059C3.5 15.199 5.24075 10.975 8.33588 7.86062ZM19.208 49.4984L20 48.375L20.792 49.4984C20.56 49.6613 20.2835 49.7488 20 49.7488C19.7165 49.7488 19.44 49.6613 19.208 49.4984ZM19.208 49.4984L20 48.375L20.792 49.4984L20.7975 49.4956L20.8113 49.486L20.8525 49.4544L21.0148 49.3375C21.1523 49.2357 21.353 49.0872 21.606 48.892C22.112 48.5042 22.8298 47.9336 23.6864 47.2007C25.9351 45.2787 28.0377 43.1921 29.977 40.9582C34.5255 35.6975 39.25 28.1886 39.25 19.6045C39.25 14.4757 37.2233 9.55325 33.6153 5.92325C31.8319 4.12666 29.7109 2.7005 27.3742 1.72685C25.0376 0.753204 22.5314 0.25129 20 0.25C17.4687 0.25111 14.9626 0.752807 12.6259 1.72622C10.2893 2.69963 8.1682 4.12554 6.38475 5.92187C2.77321 9.56017 0.747576 14.4794 0.750002 19.6059C0.750002 28.1886 5.4745 35.6975 10.023 40.9582C11.9623 43.1921 14.0649 45.2787 16.3136 47.2007C17.1716 47.9336 17.888 48.5042 18.394 48.892C18.6422 49.0833 18.8929 49.2712 19.1461 49.4557L19.1901 49.486L19.2025 49.4956L19.208 49.4984ZM14.5 19.5C14.5 18.0413 15.0795 16.6424 16.1109 15.6109C17.1424 14.5795 18.5413 14 20 14C21.4587 14 22.8576 14.5795 23.8891 15.6109C24.9205 16.6424 25.5 18.0413 25.5 19.5C25.5 20.9587 24.9205 22.3576 23.8891 23.3891C22.8576 24.4205 21.4587 25 20 25C18.5413 25 17.1424 24.4205 16.1109 23.3891C15.0795 22.3576 14.5 20.9587 14.5 19.5ZM20 11.25C17.812 11.25 15.7135 12.1192 14.1664 13.6664C12.6192 15.2135 11.75 17.312 11.75 19.5C11.75 21.688 12.6192 23.7865 14.1664 25.3336C15.7135 26.8808 17.812 27.75 20 27.75C22.188 27.75 24.2865 26.8808 25.8336 25.3336C27.3808 23.7865 28.25 21.688 28.25 19.5C28.25 17.312 27.3808 15.2135 25.8336 13.6664C24.2865 12.1192 22.188 11.25 20 11.25Z" fill="#3A9EFD"/>
</svg>
