<svg width="100" height="100" viewBox="0 0 100 100" fill="none" xmlns="http://www.w3.org/2000/svg">
<g clip-path="url(#clip0)">
<path d="M91.6249 100H8.37511C3.75656 100 0 96.2434 0 91.6259V8.3741C0 3.75656 3.75656 0 8.37511 0H91.6252C96.2437 0 100 3.75656 100 8.3741V47.8339C100 48.7861 99.2292 49.5582 98.2761 49.5582C97.3229 49.5582 96.5518 48.7861 96.5518 47.8339V8.3741C96.5518 5.65808 94.3412 3.44819 91.6252 3.44819H8.37511C5.65909 3.44819 3.44844 5.65808 3.44844 8.3741V91.6262C3.44844 94.3417 5.65909 96.5516 8.37511 96.5516H91.6252C94.3412 96.5516 96.5518 94.3417 96.5518 91.6256V82.2499C96.5518 81.2978 97.3229 80.5257 98.2761 80.5257C99.2292 80.5257 100 81.2978 100 82.2499V91.6256C100 96.2434 96.2435 100 91.6249 100Z" fill="#3A9EFD"/>
<path d="M98.2758 75.8612C97.3229 75.8612 96.5516 75.0891 96.5516 74.1369V55.0521C96.5516 54.0999 97.3226 53.3278 98.2758 53.3278C99.2289 53.3278 100 54.0999 100 55.0521V74.1369C100 75.0891 99.2287 75.8612 98.2758 75.8612Z" fill="#3A9EFD"/>
<path d="M72.4137 43.1035C63.8568 43.1035 56.8965 36.1422 56.8965 27.5863C56.8965 19.0303 63.8568 12.069 72.4137 12.069C80.9707 12.069 87.931 19.0303 87.931 27.5863C87.931 36.1422 80.9707 43.1035 72.4137 43.1035ZM72.4137 15.5172C65.7593 15.5172 60.3447 20.9313 60.3447 27.5863C60.3447 34.2412 65.7593 39.6553 72.4137 39.6553C79.0682 39.6553 84.4828 34.2412 84.4828 27.5863C84.4828 20.9313 79.0682 15.5172 72.4137 15.5172Z" fill="#00E7FF"/>
<path d="M86.2067 89.6552H58.6207C57.6678 89.6552 56.8965 88.8831 56.8965 87.931V60.3447C56.8965 59.3925 57.6675 58.6205 58.6207 58.6205H86.207C87.1599 58.6205 87.9312 59.3925 87.9312 60.3447V87.931C87.931 88.8831 87.1599 89.6552 86.2067 89.6552ZM60.3447 86.2067H84.4825V62.0689H60.3447V86.2067Z" fill="#EA3457"/>
<path d="M38.7931 42.2413C38.3521 42.2413 37.9106 42.0728 37.5742 41.7361L12.5741 16.7361C11.9008 16.0628 11.9008 14.9715 12.5741 14.2981C13.2475 13.6248 14.3388 13.6248 15.0121 14.2981L40.0122 39.2982C40.6855 39.9715 40.6855 41.0628 40.0122 41.7361C39.6755 42.0728 39.234 42.2413 38.7931 42.2413Z" fill="#EA3457"/>
<path d="M13.793 42.2413C13.352 42.2413 12.9106 42.0728 12.5741 41.7361C11.9008 41.0628 11.9008 39.9715 12.5741 39.2982L37.5742 14.2981C38.2475 13.6248 39.3388 13.6248 40.0122 14.2981C40.6855 14.9715 40.6855 16.0628 40.0122 16.7361L15.0121 41.7361C14.6754 42.0728 14.234 42.2413 13.793 42.2413Z" fill="#EA3457"/>
<path d="M44.5095 89.6552H10.6631C10.0466 89.6552 9.47779 89.3269 9.16942 88.7932C8.86129 88.2595 8.86129 87.6026 9.16942 87.069L26.0926 57.7587C26.7091 56.6912 28.4634 56.6912 29.0797 57.7587L46.0029 87.069C46.311 87.6026 46.311 88.2595 46.0029 88.7932C45.6948 89.3266 45.1255 89.6552 44.5095 89.6552ZM13.6501 86.2067H41.5225L27.5863 62.0689L13.6501 86.2067Z" fill="#FFE600"/>
</g>
<defs>
<clipPath id="clip0">
<rect width="100" height="100" fill="white"/>
</clipPath>
</defs>
</svg>
