<svg width="38" height="37" viewBox="0 0 38 37" fill="none" xmlns="http://www.w3.org/2000/svg">
<path d="M16.5834 31.5C20.0594 31.4993 23.4352 30.3604 26.1733 28.2647L34.7821 36.6903L37.5512 33.9802L28.9424 25.5545C31.0848 22.8744 32.2492 19.5696 32.25 16.1667C32.25 7.71225 25.2216 0.833328 16.5834 0.833328C7.94515 0.833328 0.916687 7.71225 0.916687 16.1667C0.916687 24.6211 7.94515 31.5 16.5834 31.5ZM16.5834 4.66666C23.0635 4.66666 28.3334 9.82441 28.3334 16.1667C28.3334 22.5089 23.0635 27.6667 16.5834 27.6667C10.1032 27.6667 4.83335 22.5089 4.83335 16.1667C4.83335 9.82441 10.1032 4.66666 16.5834 4.66666Z" fill="#3A9EFD"/>
</svg>
